<svg xmlns="http://www.w3.org/2000/svg" viewBox="0 0 114.53 149.92"><defs><style>.cls-1{fill:#ff8e99;}.cls-2{fill:#cdced3;}.cls-3{fill:#7b7b89;}.cls-4{fill:#282f39;}.cls-5{fill:#595970;}.cls-6{fill:#bdbec3;}.cls-7{fill:#08d192;}</style></defs><g id="Layer_2" data-name="Layer 2"><g id="OBJECTS"><path class="cls-1" d="M84.52,143.78c-4.26-3.09-9.28-3.1-14.36-3.64a3.69,3.69,0,0,0-.47,0,156.09,156.09,0,0,1-1.75-21.4c0-3.66-5.74-3.67-5.69,0a71.07,71.07,0,0,0,4.08,22.77,20.71,20.71,0,0,0-8,3.91c-1,.78.08,2.37,1.19,2,7.17-2.16,13.48-.85,20.26,2.26a1.73,1.73,0,0,0,1.74-3c-1.17-.74-2.35-1.46-3.55-2.14a53.77,53.77,0,0,0,6.36-.24A.32.32,0,0,0,84.52,143.78Z"/><path class="cls-1" d="M100,135.92c-4.26-3.1-9.28-3.1-14.35-3.64a2.46,2.46,0,0,0-.47,0,154.54,154.54,0,0,1-1.76-21.4c0-3.66-5.74-3.67-5.69,0a71.13,71.13,0,0,0,4.08,22.78,20.56,20.56,0,0,0-8,3.91c-1,.77.09,2.36,1.19,2,7.16-2.15,13.52-.83,20.26,2.27a1.73,1.73,0,0,0,1.74-3c-1.17-.74-2.35-1.46-3.55-2.14a53.77,53.77,0,0,0,6.36-.24A.32.32,0,0,0,100,135.92Z"/><path class="cls-2" d="M57.54,108c.38,6.76,1,13.93,5,19.4,1,1.38,5.77.64,5.91-.69.68-6.53,1.25-14,3.68-20.12Z"/><path class="cls-2" d="M94.54,91.27,79.88,101a37.39,37.39,0,0,0-3.2,9.71,13.29,13.29,0,0,0,2.06,9.78c1.08,1.44,5.81.54,5.74-.58s-.41-3.07-.4-4.19c0-2.68,2-4.88,3.58-7A35.83,35.83,0,0,0,94.54,91.27Z"/><path class="cls-3" d="M56.15,99.84,40.31,82.56a.56.56,0,0,0-.55-.17.58.58,0,0,0-.34.17C29,93.31,18.16,103.79,8.15,114.94a78.77,78.77,0,0,0-6.23,7.65c-1.19,1.71-2.5,4.14-1.65,6.27,1.69,4.22,7.69,2.32,11.2.65-1,3-1.84,6.5,1.61,8.09,3.86,1.77,7.27-1,9.76-3.77C23.4,137,25,139.71,28.91,139c4.62-.88,8-5.05,10.6-8.6a136.23,136.23,0,0,0,16.8-29.92A.6.6,0,0,0,56.15,99.84Z"/><path class="cls-4" d="M42.08,124.83a34.89,34.89,0,0,1-5,1.56,9.22,9.22,0,0,1-4.49.08c-2.4-.75-2.66-3.12-2.33-5.23.07-.48-.42-1-.92-.71-2,1.39-4.86,3.39-7.41,2.42-2.08-.79-2.42-3.3-2.55-5.25a.64.64,0,0,0-.94-.55c-3.06,1.52-8.3,2.76-9.21-2a.63.63,0,0,0-1.05-.28,82.24,82.24,0,0,0-6.26,7.68c-1.19,1.71-2.5,4.13-1.65,6.27,1.69,4.22,7.69,2.32,11.2.65-1,3-1.84,6.5,1.61,8.09,3.84,1.77,7.24-1,9.73-3.73a6.35,6.35,0,0,0,1.93,4.25c1.66,1.39,3.94,1.1,5.81.35,5.51-2.21,9-8,12.24-12.72A.63.63,0,0,0,42.08,124.83Z"/><path class="cls-5" d="M12.77,126.45c8-8.65,15.44-17.94,22.66-27.21.68-.88-.51-2.14-1.25-1.25-7.64,9-15.23,18.31-22.1,27.93-.28.4.36.89.69.53Z"/><path class="cls-5" d="M22.56,131.6c7.53-8.68,13.66-18.78,19.35-28.73a.9.9,0,0,0-1.55-.9c-5.69,10-12.31,19.38-18.5,29.09-.27.42.36.93.7.54Z"/><path class="cls-2" d="M112.66,64.49a34.25,34.25,0,0,0-1.88-4.43c-2-3.92-4.35-7.55-6.44-11.47a24.45,24.45,0,0,1-1.53-3.85,96.32,96.32,0,0,1-2.56-14c-.25-2.11-.8-4,.42-7.1,1.86-4.79,4-6.13,3.28-10.48-.5-2.85-.54-9.36-6-11.58S84,1.3,80,5.6c-3.42,3.66-4.43,9-4.25,14s1.4,9.92,1.8,14.91c.07.95.11,1.89.13,2.84A19.37,19.37,0,0,1,73,46.15c-3.14,3.59-7.27,6.13-11.13,8.93a94.3,94.3,0,0,0-32.06,41c-.67,1.67-1.3,3.52-.73,5.23a6.11,6.11,0,0,0,3.49,3.57c20.35,8.3,45.08,7.59,64.54-3.14,7.69-4.24,14.36-11,16.58-19.55A31.3,31.3,0,0,0,112.66,64.49Z"/><path class="cls-6" d="M109.67,56.68c-2-3.6-4.51-7.11-5.89-11a62.92,62.92,0,0,1-2.53-11.92c-.56-3.94-1.15-7.38.56-11.14,1.11-2.45,2.85-4.74,2.92-7.53a27.1,27.1,0,0,0-.89-6.52C102.63,3.28,98.94.37,93.56.09S82,1.84,78.61,6.27c-5,6.58-3.49,15.38-2.36,22.92A44.52,44.52,0,0,1,77,36.65c0,2.6-1.52,5.16-3,7.22-2.81,3.89-6.71,6.62-10.59,9.34a.64.64,0,0,0-.23.86,61.4,61.4,0,0,0,9.89,15c7.51,7.71,20.43,14.91,31.28,10.13,5-2.2,9.3-7.32,9.16-13C113.44,62.83,111.25,59.49,109.67,56.68Z"/><path class="cls-3" d="M112.3,61.83c-.62-1.42-1.33-2.78-2.07-4.14-1.48-2.71-3.1-5.34-4.6-8-3-5.46-3.9-11.93-4.66-18.06-.3-2.4-.7-4.65,0-7s2.3-4.45,3.18-6.81c1.11-3,.28-7.07-.58-10.08a9.59,9.59,0,0,0-7-7.12C88.38-1.6,78.9,2.75,76.19,11c-2,5.93-.84,12.19.06,18.2.56,3.74,1.39,7.66-.21,11.23a24.7,24.7,0,0,1-6.67,8.38.62.62,0,0,0-.1.76c7.44,11.91,19.48,20.26,33.84,20.06a14.6,14.6,0,0,0,6.45-2c1-.57,3.37-1.86,3.64-3.15C113.36,63.72,112.59,62.51,112.3,61.83Z"/><path class="cls-3" d="M73.68,57.46l-.06-.05s0,0,0-.08c-8.26-9.85-19.77,3.75-25.41,9.73-3.9,4.14-7.79,8.81-12.7,11.82-3.21,2-6.87,3.06-10.18,4.86a50,50,0,0,0-8.41,5.81c-.4.34-.12.89.28,1,4,1.63,8.2,1.52,12.32.7a48.62,48.62,0,0,0-4.76,3,.65.65,0,0,0-.22.86c1,2.24,6.89,1,8.56.77,1.25-.17,2.54-.36,3.83-.59a5.29,5.29,0,0,0-1.65,1.31.63.63,0,0,0,.28,1c5.35,1.3,11.06.27,16.21-1.43a40.57,40.57,0,0,0,13.84-7.38,31.44,31.44,0,0,0,9.54-14.78C76.73,68.73,77.19,62.26,73.68,57.46Z"/><path class="cls-5" d="M109.84,14.16a35.21,35.21,0,0,0-4.44-3c-1.11-.62-2.33-1.59-3.64-1.4-2.59.38-4.27,2.9-4.81,5.27-.2.89-.49,2.15.11,3,.89,1.17,3.32,1.13,4.63,1.4,3.52.72,8.89,1.14,10.64,4.77a.64.64,0,0,0,1.09,0C115.29,20,113,16.76,109.84,14.16Z"/><path class="cls-4" d="M91.46,12.09a3,3,0,1,1-3-3A3,3,0,0,1,91.46,12.09Z"/><path class="cls-2" d="M98.48,15.3c.07-2.09,1.56-3.22,3.4-3.85A1.65,1.65,0,0,0,101,8.27a6.92,6.92,0,0,0-5.11,7,1.3,1.3,0,0,0,2.59,0Z"/><path class="cls-4" d="M113.18,23.19c-.73-3.57-4.84-5.87-8.14-6.65-1.89-.45-3.83-.68-5.73-1-1.59-.31-3.88-.6-5.06-1.82-.72-.74-1.9.48-1.12,1.12,2.37,1.95,6.13,2.13,9,2.66,4.11.75,8.46,1.95,10.58,5.93.13.25.49.07.44-.19Z"/><path class="cls-5" d="M30.23,90A48.71,48.71,0,0,0,40,84.77a79.75,79.75,0,0,0,9-6.68c1-.87-.42-2.19-1.41-1.42-2.93,2.28-5.83,4.57-8.88,6.69s-6,3.75-8.85,5.87c-.36.27-.17,1,.34.8Z"/><path class="cls-5" d="M38.23,93.78c7.07-4,14.18-7.29,19.41-13.78.76-1-.56-2.31-1.35-1.36a41.57,41.57,0,0,1-9.08,8.23c-3.11,2-7,3.41-9.41,6.37a.35.35,0,0,0,.43.54Z"/><path class="cls-4" d="M35.35,82.16c-.8,1.89.53,4,1.6,5.52A11.75,11.75,0,0,0,41.71,92,19,19,0,0,0,50,93.26c2.6-.09,5.79-.48,7.86-2.16s-.25-4.09-2.19-3.78-3.75,1.07-5.71,1.32a13.65,13.65,0,0,1-6.38-.47c-2.78-1-4.59-4.3-6.77-6.19a.91.91,0,0,0-1.42.18Z"/><path class="cls-6" d="M79.75,108.6a17.14,17.14,0,0,0,7.75-3.15c.63-.46,0-1.52-.61-1A22.26,22.26,0,0,1,79.57,108c-.42.12-.23.69.18.63Z"/><path class="cls-6" d="M63.78,114a6.14,6.14,0,0,0,.14,3.65.64.64,0,1,0,1.18-.5,6.42,6.42,0,0,1-.49-3,.43.43,0,0,0-.83-.12Z"/><path class="cls-6" d="M67.1,112.65a5.07,5.07,0,0,0-.21,4.19c.32.81,1.53.28,1.1-.47a3.93,3.93,0,0,1-.23-3.44c.15-.38-.48-.64-.66-.28Z"/><path class="cls-6" d="M65.79,119a4,4,0,0,0,.22,3,.69.69,0,0,0,1.19-.69,2.5,2.5,0,0,1-.38-2,.54.54,0,0,0-1-.29Z"/><path class="cls-6" d="M80.93,111.94c-.14.72-.17,1.47-.24,2.2s1.38.84,1.29,0-.1-1.48-.24-2.2a.42.42,0,0,0-.81,0Z"/><path class="cls-6" d="M82.57,112.89c0,.69-.06,1.39-.11,2.09s1.14.7,1.09,0-.08-1.4-.1-2.09a.44.44,0,0,0-.88,0Z"/><path class="cls-2" d="M96.26,72.53a14.87,14.87,0,0,0-.63,5.59.81.81,0,1,0,1.6-.22,23.63,23.63,0,0,1-.08-5.25c0-.53-.74-.58-.89-.12Z"/><path class="cls-2" d="M99.29,74.78a13.91,13.91,0,0,1-.59,4.84c-.27.9,1.2,1.29,1.39.38a14.11,14.11,0,0,0,.07-5.34c-.08-.49-.89-.38-.87.12Z"/><path class="cls-2" d="M103,74.35c-.11.83-.15,1.68-.21,2.52-.08,1,1.67,1,1.59,0-.07-.84-.1-1.69-.21-2.52a.59.59,0,0,0-1.17,0Z"/><path class="cls-6" d="M70.32,99.16a7.07,7.07,0,0,1-2.78,2.59.83.83,0,0,0,.84,1.43,7.28,7.28,0,0,0,3.11-3.33c.4-.77-.74-1.45-1.17-.69Z"/><path class="cls-6" d="M75.59,98.77c-1.34,1.17-2.68,2.33-4,3.57-.65.62.37,1.64,1,1,1.23-1.28,2.4-2.63,3.56-4a.42.42,0,0,0-.59-.59Z"/><path class="cls-6" d="M98.53,92.8c-1.06.9-2.07,1.85-3.06,2.81-.68.67.38,1.72,1,1,1-1,1.92-2,2.81-3.05a.56.56,0,0,0-.79-.8Z"/><path class="cls-6" d="M102.84,91.23a18.41,18.41,0,0,1-3.17,3.13c-.7.55.3,1.59,1,1a14.93,14.93,0,0,0,3-3.52c.29-.47-.43-1-.78-.6Z"/><path class="cls-7" d="M84.16,27.44A19.53,19.53,0,0,0,84.4,30a.71.71,0,1,0,1.4-.19,20.64,20.64,0,0,0-.59-2.47.54.54,0,0,0-1,.14Z"/><path class="cls-7" d="M88.54,27.86c0,1.11,0,2.24.12,3.35a.71.71,0,1,0,1.4-.19c-.15-1.1-.43-2.2-.69-3.28-.11-.47-.81-.35-.83.12Z"/><path class="cls-7" d="M93.1,28.7a17.58,17.58,0,0,1-.28,1.91.68.68,0,1,0,1.32,0,17.58,17.58,0,0,1-.28-1.91.38.38,0,0,0-.76,0Z"/><path class="cls-7" d="M85.39,33.87a5.42,5.42,0,0,1,.23,3,.74.74,0,1,0,1.47.2,6.85,6.85,0,0,0-.54-3.52c-.29-.7-1.44-.41-1.16.31Z"/><path class="cls-7" d="M90,35q-.09,1.26-.21,2.52c-.09,1,1.61,1,1.51,0s-.14-1.68-.21-2.52A.55.55,0,0,0,90,35Z"/><path class="cls-7" d="M94.31,33.72c0,.69.17,1.39.19,2.09,0,1.13,1.81.75,1.44-.2-.28-.7-.43-1.45-.72-2.14-.2-.46-.91-.2-.91.25Z"/><path class="cls-7" d="M97,28.54a2.48,2.48,0,0,0,.09,2.19.66.66,0,0,0,1,.14.67.67,0,0,0-.13-1,.82.82,0,0,1-.32-1c.11-.38-.49-.65-.66-.28Z"/><path class="cls-7" d="M82.55,33.31A3,3,0,0,1,82,35c-.54.79.83,1.61,1.29.75a3.1,3.1,0,0,0,.14-2.69c-.19-.44-.82-.18-.83.22Z"/><path class="cls-7" d="M98,36.66a11.75,11.75,0,0,0,.26,1.44.71.71,0,0,0,1,.46.72.72,0,0,0,.34-1A10.6,10.6,0,0,0,99,36.39c-.25-.41-1-.28-1,.27Z"/><path class="cls-7" d="M93.35,39.17c0,.22-.07.44-.11.66a.69.69,0,1,0,1.32,0c0-.22-.09-.44-.12-.66a.55.55,0,0,0-.54-.54.56.56,0,0,0-.55.54Z"/><path class="cls-7" d="M86.59,40c0,.56-.06,1.12-.11,1.68-.07.92,1.51.92,1.43,0,0-.56-.08-1.12-.11-1.68a.61.61,0,0,0-1.21,0Z"/><path class="cls-7" d="M82.46,39.54a1.94,1.94,0,0,0-.87.62l-.25.34a1.39,1.39,0,0,0-.28.77.72.72,0,0,0,1.44,0,2.73,2.73,0,0,0,0-.41c0-.11,0,0,0-.06a1,1,0,0,1,.34-.4.48.48,0,0,0,.19-.59.44.44,0,0,0-.55-.27Z"/><path class="cls-7" d="M97.11,42a6.81,6.81,0,0,1,.58,1.58.81.81,0,1,0,1.36-.79,7.29,7.29,0,0,1-.92-1.39c-.36-.67-1.34-.08-1,.6Z"/><path class="cls-7" d="M92.37,43.55c.1.57.16,1.15.25,1.72a.87.87,0,0,0,1.06.6.86.86,0,0,0,.6-1c-.21-.55-.43-1.08-.63-1.62a.66.66,0,0,0-1.28.35Z"/><path class="cls-7" d="M88.52,44.52a5.44,5.44,0,0,1-.15.54,2.25,2.25,0,0,1-.14.44.75.75,0,1,0,1.29,0,1.73,1.73,0,0,1-.14-.44c-.06-.18-.11-.36-.16-.54a.36.36,0,0,0-.7,0Z"/><path class="cls-7" d="M83.75,44.06c-.19.54-.42,1.08-.64,1.61a.77.77,0,1,0,1.52.21c.05-.51.1-1,.17-1.53a.54.54,0,0,0-1-.29Z"/></g></g></svg>